PathFileType	4	(X/Y/Z)	8_coords_data.trc
DataRate	CameraRate	NumFrames	NumMarkers	Units	OrigDataRate	OrigDataStartFrame	OrigNumFrames
30.0	30.0	6	21	m	30.0	1	55
Frame#	Time	THUMB_TIP	THUMB_IP	THUMB_MCP	THUMB_CMC	INDEX_TIP	INDEX_DIP	INDEX_PIP	INDEX_MCP	MIDDLE_TIP	MIDDLE_DIP	MIDDLE_PIP	MIDDLE_MCP	RING_TIP	RING_DIP	RING_PIP	RING_MCP	PINKY_TIP	PINKY_DIP	PINKY_PIP	PINKY_MCP	WRIST
X1	Y1	Z1	X2	Y2	Z2	X3	Y3	Z3	X4	Y4	Z4	X5	Y5	Z5	X6	Y6	Z6	X7	Y7	Z7	X8	Y8	Z8	X9	Y9	Z9	X10	Y10	Z10	X11	Y11	Z11	X12	Y12	Z12	X13	Y13	Z13	X14	Y14	Z14	X15	Y15	Z15	X16	Y16	Z16	X17	Y17	Z17	X18	Y18	Z18	X19	Y19	Z19	X20	Y20	Z20	X21	Y21	Z21
0	-2.749317978547796e-18	0.5262693935575059	-0.010271162004415024	-0.14226132702343602	0.5040516358697058	-0.01598311174476097	-0.14094039042769568	0.48107337828324026	-0.02465919404851269	-0.12182115210216171	0.4727617162047114	-0.02821729335464007	-0.07813881925671862	0.5667037750090554	0.007115425229619943	-0.1516070118817019	0.5536594341113105	0.018656307656144677	-0.14664181265502935	0.5336322175220038	0.030809662017916017	-0.13751950996096052	0.49917904798653834	0.01568282929897591	-0.11757473282874686	0.5869801326742543	0.01840217475748962	-0.1381066048863644	0.5728535256600996	0.027216556934554825	-0.13098300740305108	0.5483999022968937	0.03716760416438941	-0.11863770410827218	0.5111390660771652	0.02231152124741731	-0.09896348733680643	0.5929270709763063	0.01326926644107862	-0.11683333941465274	0.5797845607964346	0.021784860318830424	-0.10790254510053021	0.5595763028921164	0.03107664432396301	-0.09670124868116309	0.5240309492887006	0.017202700136788485	-0.08333104509635136	0.5940681812244406	0.0028275583008562366	-0.0900085243789231	0.580684179556331	0.009718024001969416	-0.08186051960659879	0.5622733495207343	0.016492772497757713	-0.07438013597879017	0.5288788353572561	0.005665380380528662	-0.06610623395344473	0.4622830810018608	-0.023011742144276925	-0.051989820119430985
1	0.03333333333333339	0.5264821712608952	-0.009873072892876866	-0.1423338073419354	0.5042931578108238	-0.0155977594748119	-0.14063803446470124	0.48102525706781685	-0.023928276831050588	-0.12171642577011654	0.47286534255506807	-0.028303534915276707	-0.07807971058850549	0.5668354707259692	0.007458667878288638	-0.15166380302511606	0.5538546688335577	0.019026890373348593	-0.14659675156151775	0.5336414459713033	0.030861331640010592	-0.13746540694931725	0.4991325299565563	0.016034063312618363	-0.11739246686983079	0.5871028884193078	0.018579398745828146	-0.1380268440044256	0.5729276860126992	0.0272094889741068	-0.13077528007769607	0.5485897954999666	0.03728272266525734	-0.11830104269043618	0.5112632156449438	0.022281771037472753	-0.09886278640064822	0.5929459626083842	0.013792056108527628	-0.1165607589007312	0.5797254172468749	0.02228241827236488	-0.10772158865284259	0.5594482065567868	0.0313558441665992	-0.09646602788619851	0.5238433052737571	0.01778877614447516	-0.08294025604468142	0.5941362852402514	0.003184563291085629	-0.08965575235631856	0.580722365120896	0.010317100488678732	-0.08176945663801682	0.562228638583979	0.016624493171497612	-0.07408760169780548	0.5287998466644114	0.006115535869695932	-0.06554587246847704	0.4622830810018608	-0.023011742144276925	-0.051989820119430985
2	0.06666666666666676	0.526646887284223	-0.009631602365158254	-0.1423510882191843	0.5044814802317907	-0.01536369445002006	-0.1403920449499687	0.4809870272034218	-0.023411643228561263	-0.12162875106654447	0.4729429147329399	-0.028375043027456526	-0.07803348851430641	0.5669079862691144	0.007766576143062087	-0.1517160532130925	0.5539746329844292	0.019355946074904096	-0.14657651263085758	0.5336207376865174	0.030938556233053083	-0.13743474468773043	0.49909483495064455	0.016288348439240652	-0.11726125847757907	0.5871818394987351	0.01869747138004374	-0.1379829202160595	0.5729741998621457	0.027190638429432257	-0.13063383255649302	0.5487293835724603	0.03736146316804462	-0.11805795257870078	0.5113552260760794	0.022248162731954402	-0.09879896967813734	0.5929446040496421	0.014162324773301482	-0.11637092853426895	0.5796701643114218	0.022638541830000358	-0.1075992129640918	0.5593446785486507	0.03155275198057955	-0.09630357376576837	0.5236979752984547	0.018222035925618885	-0.08265346787407346	0.5941662226745	0.0034116706276348108	-0.0894222717641861	0.5807333430692645	0.010723049287058473	-0.08173452257409342	0.562189684742991	0.01669285560864442	-0.07390469707404695	0.5287385936417995	0.006437437165024651	-0.06514488271037139	0.4622830810018608	-0.023011742144276925	-0.051989820119430985
3	0.10000000000000014	0.5267640203587385	-0.009500073171541668	-0.14234094959053945	0.5046154627497601	-0.015235626452663964	-0.14020909021403966	0.480954640186693	-0.02306539937240637	-0.12156290745015147	0.47299615093005754	-0.028432359772424975	-0.07799975576416068	0.5669329433273015	0.008041157922729858	-0.15176704225837168	0.5540335291506084	0.019647049366487757	-0.14657971176053025	0.5335764931414093	0.03103685598604977	-0.13742592479079396	0.4990656591728875	0.01645652299629108	-0.11717617608359071	0.5872238263558486	0.018758922502169706	-0.13797288475537461	0.5729974059805828	0.027159081216299175	-0.13055356558959835	0.5488253527528882	0.03740631359952895	-0.11789988544342755	0.511419462395457	0.022211185104563547	-0.09876731223464758	0.5929312842340383	0.014396399427945239	-0.11625824395411549	0.5796238654729075	0.02286832877434819	-0.10753247641965413	0.5592673889662924	0.03167540778060207	-0.09620864303103377	0.5235931645208852	0.01851944211857237	-0.08246123921365012	0.5941741664625795	0.0035416332783528848	-0.08928677313002009	0.5807295503374746	0.01097795135474755	-0.0817406833667551	0.5621587730731481	0.016720709355718455	-0.07380601378692597	0.528695139391177	0.006652407319665543	-0.06487864206229971	0.462283081001861	-0.023011742144276925	-0.051989820119430985
4	0.13333333333333353	0.5268364856848712	-0.009446106438099178	-0.14232004460511555	0.5046977843005507	-0.015181974106065255	-0.1400889634520699	0.48092556779530327	-0.022855562408725327	-0.12151969408063468	0.473027500190364	-0.028476492271278575	-0.07797758026437551	0.5669197484190239	0.00828307281084284	-0.1518180947250342	0.5540431578338934	0.019902154600617283	-0.1466036577213436	0.5335141760212668	0.031150779864102307	-0.1374363697680534	0.4990444317371957	0.016549750656519424	-0.11713162231653201	0.5872351610023205	0.01876808050169021	-0.137993453442587	0.5730014141411292	0.027114637073752168	-0.1305278360079143	0.5488842466615261	0.03742028699636896	-0.11781699959038239	0.5114600838823793	0.022171271946633264	-0.09876319416225698	0.5929114141951708	0.014511574540977068	-0.11621456446131495	0.5795887818175723	0.022987690419124185	-0.10751612056877957	0.5592157524982824	0.03173273493336737	-0.09617399326393661	0.5235254232085976	0.018698641202404498	-0.08235250167271008	0.5941701335784307	0.0035988588601412186	-0.08923078316903299	0.5807185914549903	0.011114816598328914	-0.08177649622935318	0.5621367972234786	0.016723397968236964	-0.07377195019882254	0.5286682771041323	0.006778436006284694	-0.06472544017582266	0.4622830810018609	-0.023011742144276925	-0.051989820119430985
5	0.1666666666666669	0.5268693279118135	-0.009447650913382954	-0.14229721281899588	0.5047340358524437	-0.015181120417622984	-0.14002649203247175	0.48089845620108385	-0.022754841734405895	-0.12149749076150773	0.4730399778001042	-0.028508831308711846	-0.07796559531460445	0.5668762837343834	0.008492015477322923	-0.15186920417367172	0.5540136632119432	0.02012207375957875	-0.14664476758710704	0.5334386478824253	0.03127424680621771	-0.1374628498392767	0.4990303849644414	0.01657942643796162	-0.11712151774642726	0.587221723164052	0.018730639210829514	-0.13804028680111863	0.5729901506761753	0.027057707162027267	-0.13054880604906094	0.548912486897312	0.03740681379304572	-0.11779844727403738	0.5114811055587108	0.022128823996622193	-0.09878206907353343	0.592888298804341	0.014525793422917266	-0.11622990956259743	0.5795651224546311	0.023013080796214114	-0.10754319988645389	0.5591875211128523	0.031734269976985585	-0.09619092250133271	0.5234900700678892	0.018777738876359806	-0.08231500362253485	0.5941598801449818	0.003601121285917719	-0.08923836905158022	0.5807047646462661	0.011159419494354061	-0.08183350611506574	0.5621235884730946	0.016710350066929336	-0.0737874461600308	0.5286560136289518	0.0068312343678395004	-0.06466560653988301	0.4622830810018608	-0.023011742144276925	-0.051989820119430985
